<?xml version="1.0" encoding="UTF-8" standalone="no"?>
<svg
   version="1.1"
   width="166"
   height="166.457"
   id="svg7"
   sodipodi:docname="ryo-logo-dark.svg"
   inkscape:version="1.4 (e7c3feb1, 2024-10-09)"
   xmlns:inkscape="http://www.inkscape.org/namespaces/inkscape"
   xmlns:sodipodi="http://sodipodi.sourceforge.net/DTD/sodipodi-0.dtd"
   xmlns="http://www.w3.org/2000/svg"
   xmlns:svg="http://www.w3.org/2000/svg">
  <defs
     id="defs7" />
  <sodipodi:namedview
     id="namedview7"
     pagecolor="#ffffff"
     bordercolor="#000000"
     borderopacity="0.25"
     inkscape:showpageshadow="2"
     inkscape:pageopacity="0.0"
     inkscape:pagecheckerboard="0"
     inkscape:deskcolor="#d1d1d1"
     inkscape:zoom="0.62711358"
     inkscape:cx="212.08279"
     inkscape:cy="27.108327"
     inkscape:window-width="1352"
     inkscape:window-height="791"
     inkscape:window-x="86"
     inkscape:window-y="38"
     inkscape:window-maximized="0"
     inkscape:current-layer="svg7" />
  <path
     d="m 104.43568,0.00500304 c 1.02291,0.00142502 2.04581,0.00285004 3.09972,0.00431824 1.15782,-0.00307663 2.31565,-0.00615326 3.50856,-0.00932312082 1.25522,0.00718551082 2.51044,0.01437103082 3.80369,0.02177429082 1.92326,6.8733e-4 1.92326,6.8733e-4 3.88536,0.0013886 2.71446,0.0015648 5.42878,0.0098551 8.14321,0.02326965 3.4862,0.01700685 6.97225,0.02081387 10.45849,0.02005482 3.31683,3.3663e-4 6.63362,0.0091704 9.95044,0.01778698 1.88587,0.0016692 1.88587,0.0016692 3.80983,0.0033722 1.15467,0.0063799 2.30935,0.01275971 3.49901,0.01933289 1.53317,0.005718 1.53317,0.005718 3.0973,0.0115509 C 160,0.25224126 160,0.25224126 161,1.2522413 c -0.37506,5.7437619 -1.54084,9.8020057 -4.21094,14.9726557 -0.32428,0.637336 -0.64856,1.274672 -0.98267,1.931321 -1.04981,2.058501 -2.11561,4.108255 -3.18139,6.158523 -1.09593,2.141224 -2.18737,4.284695 -3.27848,6.428375 -0.73074,1.43523 -1.46282,2.869782 -2.19623,4.30365 -3.28616,6.433444 -6.43116,12.927276 -9.52529,19.455475 -0.44521,0.938518 -0.89042,1.877036 -1.34913,2.843994 -0.76577,1.615443 -1.53034,3.23146 -2.29296,4.848389 -0.97054,2.031714 -1.96963,4.046929 -2.98291,6.057617 0.6799,0.140991 1.3598,0.281983 2.0603,0.427246 3.12587,0.6486 6.25153,1.298171 9.3772,1.947754 1.06927,0.221719 2.13855,0.443438 3.24023,0.671875 2.11309,0.439419 4.22557,0.881758 6.3374,1.327149 1.90062,0.398591 3.80314,0.788253 5.70801,1.166015 6.05722,1.240329 6.05722,1.240329 8.27686,3.459961 -0.092,4.551642 -1.38097,6.947089 -4.59293,10.133759 -0.49785,0.468906 -0.9957,0.937813 -1.50864,1.420929 -0.77203,0.757863 -0.77203,0.757863 -1.55966,1.531036 -1.64314,1.608702 -3.30244,3.199392 -4.96377,4.789276 -2.16349,2.096822 -4.32041,4.200326 -6.47657,6.304689 -0.78905,0.76676 -0.78905,0.76676 -1.59405,1.54901 -3.32994,3.25417 -6.41945,6.62107 -9.43085,10.16632 -4.87855,5.48122 -10.25552,10.53326 -15.47607,15.68701 -5.39547,5.33262 -10.72604,10.65807 -15.65821,16.42969 -3.62821,4.14769 -7.502178,8.05982 -11.364254,11.98828 -0.832735,0.87012 -1.665469,1.74023 -2.523438,2.63672 -1.214297,1.2317 -1.214297,1.2317 -2.453125,2.48828 -0.725258,0.74508 -1.450517,1.49015 -2.197754,2.25781 -2.635265,1.93654 -4.000483,2.04343 -7.200683,1.61719 -0.33,-0.33 -0.66,-0.66 -1,-1 0.348626,-7.43153 2.415261,-13.57648 5.113281,-20.46485 0.410823,-1.07335 0.821646,-2.1467 1.244919,-3.25257 1.308175,-3.41061 2.631037,-6.8153 3.9543,-10.22008 0.877913,-2.28284 1.754875,-4.56604 2.630859,-6.84961 C 94.567446,115.03586 98.227954,105.62341 102,96.252241 101.2098,96.154271 100.41961,96.056304 99.605465,95.955366 89.277771,94.586209 79.170331,92.485812 68.999996,90.252241 67.778374,84.653515 68.39545,80.933002 70.585933,75.767866 c 0.288463,-0.717605 0.576926,-1.43521 0.874131,-2.17456 0.956581,-2.37012 1.935607,-4.730263 2.914932,-7.091065 0.675093,-1.659802 1.348483,-3.320299 2.020263,-4.981445 1.064554,-2.630553 2.130801,-5.260331 3.203354,-7.887634 2.763387,-6.771384 5.454382,-13.569038 8.116227,-20.380921 0.578174,-1.476933 0.578174,-1.476933 1.168029,-2.983703 1.520481,-3.884122 3.040789,-7.768297 4.555054,-11.654847 1.053509,-2.700577 2.113645,-5.398463 3.175354,-8.095825 0.313962,-0.8096922 0.627925,-1.6193846 0.951401,-2.4536131 3.031772,-7.66954216 3.031772,-7.66954216 6.871002,-8.05924986 z"
     fill="#fab123"
     id="path2"
     style="fill:#000000;fill-opacity:1" />
  <path
     d="m 43.92187,34.861613 c 0.859986,0.0057 1.719972,0.01132 2.606018,0.01715 2.741274,0.02236 5.48123,0.07255 8.222107,0.123474 1.860658,0.02007 3.721337,0.03832 5.582031,0.05469 4.556496,0.04405 9.112009,0.113074 13.667969,0.195312 -0.451962,1.605973 -0.911823,3.209725 -1.375,4.8125 -0.382852,1.339981 -0.382852,1.339981 -0.773438,2.707031 -0.851562,2.480469 -0.851562,2.480469 -2.851562,5.480469 -2.578054,0.304676 -4.912184,0.420173 -7.492188,0.398438 -1.113523,0.0043 -1.113523,0.0043 -2.249542,0.0087 -1.571937,0.002 -3.1439,-0.0035 -4.71579,-0.01602 -2.401461,-0.01601 -4.801228,-1.84e-4 -7.202636,0.01904 -1.527348,-0.002 -3.054694,-0.0058 -4.582031,-0.01172 -0.71679,0.0061 -1.433579,0.01215 -2.172089,0.0184 -3.107743,-0.04361 -5.290126,-0.255246 -8.039337,-1.758149 -1.546387,-1.658691 -1.546387,-1.658691 -2.046387,-4.596191 1.275073,-7.809817 6.830249,-7.616602 13.421875,-7.453123 z"
     fill="#f87c1f"
     id="path3"
     style="fill:#000000;fill-opacity:1" />
  <path
     d="m 55.70312,7.861613 c 0.83779,0.00566 1.67558,0.01132 2.538757,0.017151 2.66996,0.022351 5.338566,0.072543 8.008118,0.1234741 1.812481,0.020067 3.624982,0.038317 5.4375,0.054687 4.43802,0.04405 8.875031,0.1130669 13.3125,0.1953125 -1.65,4.29 -3.3,8.58 -5,13 -4.64474,0.07416 -9.289135,0.128606 -13.934326,0.164795 -1.580139,0.01509 -3.160237,0.03556 -4.740235,0.06152 -2.271345,0.03639 -4.542137,0.05341 -6.81372,0.06665 -1.059526,0.02323 -1.059526,0.02323 -2.140457,0.04692 -4.88225,0.0017 -4.88225,0.0017 -7.282151,-1.674607 C 43.397855,17.331549 43.06272,15.325745 42.999995,12.252238 46.267043,7.3769318 50.327471,7.7246938 55.70312,7.861613 Z"
     fill="#f9a023"
     id="path4"
     style="fill:#000000;fill-opacity:1" />
  <path
     d="m 39.85547,62.056933 c 0.661637,0.0028 1.323273,0.0057 2.004959,0.0086 2.10921,0.01118 4.217991,0.03628 6.327072,0.06174 1.431635,0.01003 2.863276,0.01916 4.294922,0.02734 3.505998,0.02203 7.011746,0.05654 10.517578,0.09766 -0.832248,4.613727 -2.300607,8.640687 -4,13 -4.24977,0.116113 -8.499133,0.187223 -12.75,0.25 -1.206562,0.03351 -2.413125,0.06703 -3.65625,0.101562 -1.740234,0.01934 -1.740234,0.01934 -3.515625,0.03906 -1.06831,0.02095 -2.136621,0.04189 -3.237304,0.06348 -3.551387,-0.567685 -4.732106,-1.580898 -6.840821,-4.454101 0.0625,-3.625 0.0625,-3.625 1,-7 3.679295,-2.452864 5.473779,-2.23229 9.855469,-2.195314 z"
     fill="#f67a1f"
     id="path5"
     style="fill:#000000;fill-opacity:1" />
  <path
     d="m 21.4375,7.814743 c 1.133086,-0.019336 2.266172,-0.038672 3.433594,-0.058594 C 28,8.252243 28,8.252243 30.414062,10.053024 32,12.252243 32,12.252243 31.9375,15.877243 31,19.252243 31,19.252243 28,21.252243 c -3.03125,0.300781 -3.03125,0.300781 -6.5,0.3125 -1.717031,0.02514 -1.717031,0.02514 -3.46875,0.05078 C 15,21.252243 15,21.252243 13.117188,19.951462 11.233773,17.086827 11.645369,14.562129 12,11.252243 c 2.437702,-3.6777874 5.263483,-3.4327621 9.4375,-3.4375 z"
     fill="#f9a021"
     id="path6"
     style="fill:#000000;fill-opacity:1" />
  <path
     d="m 10.5625,34.814743 c 1.703496,0.0019 1.703496,0.0019 3.441406,0.0039 C 17,35.252243 17,35.252243 18.878906,36.560837 20.772495,39.417715 20.354339,41.945081 20,45.252243 c -1.117188,1.699219 -1.117188,1.699219 -3,3 -3.03125,0.363281 -3.03125,0.363281 -6.5,0.3125 -1.1446875,-0.0039 -2.289375,-0.0077 -3.46875,-0.01172 C 4,48.252243 4,48.252243 1,46.252243 c -0.9375,-3.375 -0.9375,-3.375 -1,-7 3.031647,-4.203983 5.5279211,-4.523414 10.5625,-4.4375 z"
     fill="#f77b20"
     id="path7"
     style="fill:#000000;fill-opacity:1" />
</svg>
