<?xml version="1.0" encoding="UTF-8" standalone="no"?>
<svg
   version="1.1"
   width="512"
   height="512"
   id="svg7"
   sodipodi:docname="ryo_transparent.svg"
   inkscape:version="1.4 (e7c3feb1, 2024-10-09)"
   inkscape:export-filename="ryo_transparent.png"
   inkscape:export-xdpi="96"
   inkscape:export-ydpi="96"
   xmlns:inkscape="http://www.inkscape.org/namespaces/inkscape"
   xmlns:sodipodi="http://sodipodi.sourceforge.net/DTD/sodipodi-0.dtd"
   xmlns="http://www.w3.org/2000/svg"
   xmlns:svg="http://www.w3.org/2000/svg">
  <defs
     id="defs7" />
  <sodipodi:namedview
     id="namedview7"
     pagecolor="#ffffff"
     bordercolor="#000000"
     borderopacity="0.25"
     inkscape:showpageshadow="2"
     inkscape:pageopacity="0.0"
     inkscape:pagecheckerboard="0"
     inkscape:deskcolor="#d1d1d1"
     inkscape:zoom="1.9707031"
     inkscape:cx="255.49257"
     inkscape:cy="256"
     inkscape:window-width="1856"
     inkscape:window-height="1212"
     inkscape:window-x="169"
     inkscape:window-y="70"
     inkscape:window-maximized="0"
     inkscape:current-layer="svg7"
     showgrid="false" />
  <path
     d="m 287.15384,37.842892 c 2.63193,0.0037 5.26386,0.0073 7.97554,0.01111 2.97908,-0.0079 5.95815,-0.01583 9.0275,-0.02399 3.22967,0.01849 6.45934,0.03698 9.78688,0.05602 4.94851,0.0018 4.94851,0.0018 9.997,0.0036 6.98427,0.004 13.96821,0.02536 20.9524,0.05987 8.96996,0.04376 17.93955,0.05355 26.9096,0.0516 8.53419,8.66e-4 17.06826,0.0236 25.60242,0.04577 4.85232,0.0043 4.85232,0.0043 9.80266,0.0087 2.97096,0.01642 5.94193,0.03283 9.00292,0.04974 3.94482,0.01471 3.94482,0.01471 7.96934,0.02972 5.94027,0.344042 5.94027,0.344042 8.51326,2.917034 -0.96502,14.778652 -3.96457,25.22048 -10.83471,38.524521 -0.83437,1.63986 -1.66874,3.279719 -2.52839,4.969271 -2.70115,5.296507 -5.44346,10.570508 -8.18571,15.845832 -2.81981,5.50935 -5.62806,11.02448 -8.43548,16.54016 -1.8802,3.69283 -3.76382,7.38392 -5.65088,11.07325 -8.45526,16.5532 -16.54734,33.26178 -24.50851,50.05878 -1.14553,2.4148 -2.29105,4.8296 -3.47128,7.31757 -1.97033,4.15652 -3.93755,8.31452 -5.89979,12.47487 -2.49718,5.22758 -5.06784,10.41271 -7.675,15.58619 1.74937,0.36277 3.49875,0.72554 5.30114,1.09931 8.04283,1.66884 16.08514,3.34018 24.12745,5.01155 2.75124,0.57048 5.50248,1.14096 8.3371,1.72873 5.43695,1.13062 10.87234,2.26875 16.30608,3.41474 4.89027,1.02557 9.78545,2.02817 14.68666,3.00015 15.58518,3.19136 15.58518,3.19136 21.29628,8.90245 -0.23674,11.71134 -3.55321,17.8748 -11.81756,26.07408 -1.28097,1.20649 -2.56193,2.41298 -3.88171,3.65604 -1.98644,1.94997 -1.98644,1.94997 -4.013,3.93934 -4.22779,4.13918 -8.49714,8.23201 -12.77175,12.32277 -5.56664,5.3951 -11.11638,10.8074 -16.66415,16.22191 -2.03023,1.97287 -2.03023,1.97287 -4.10149,3.98559 -8.5679,8.37295 -16.51719,17.03597 -24.26549,26.15786 -12.55247,14.10313 -26.38737,27.10201 -39.81981,40.36255 -13.88251,13.72079 -27.59801,27.42313 -40.28843,42.27345 -9.33536,10.67199 -19.30305,20.73787 -29.24014,30.84575 -2.14262,2.23881 -4.28524,4.47761 -6.49278,6.78426 -3.12438,3.16915 -3.12438,3.16915 -6.31187,6.40233 -1.86609,1.91708 -3.73217,3.83416 -5.65481,5.80933 -6.78051,4.98271 -10.29321,5.25772 -18.5273,4.16101 -0.84908,-0.84909 -1.69817,-1.69818 -2.57299,-2.57299 0.89701,-19.12127 6.21445,-34.93216 13.15643,-52.65588 1.05705,-2.76172 2.11409,-5.52344 3.20317,-8.36886 3.36592,-8.77546 6.76963,-17.5357 10.17438,-26.29617 2.25886,-5.87371 4.51528,-11.74837 6.76918,-17.62399 9.32475,-24.26142 18.74321,-48.47959 28.44864,-72.59154 -2.03316,-0.25207 -4.06633,-0.50414 -6.16111,-0.76385 -26.57307,-3.52283 -52.57942,-8.92714 -78.74761,-14.6741 -3.14323,-14.40547 -1.5555,-23.97832 4.0806,-37.26817 0.74221,-1.8464 1.48443,-3.69279 2.24913,-5.59513 2.46128,-6.0983 4.9803,-12.17093 7.5001,-18.24525 1.73701,-4.27066 3.46963,-8.5431 5.19812,-12.81722 2.73909,-6.76839 5.48253,-13.53479 8.2422,-20.29482 7.11017,-17.42271 14.03408,-34.91302 20.88298,-52.43994 1.48764,-3.80013 1.48764,-3.80013 3.00534,-7.67704 3.91218,-9.99381 7.82392,-19.987765 11.72011,-29.987825 2.71067,-6.948564 5.43839,-13.890201 8.17016,-20.830492 0.80782,-2.083332 1.61565,-4.166664 2.44795,-6.313127 7.80071,-19.733669 7.80071,-19.733669 17.67903,-20.736384 z"
     fill="#fab123"
     id="path2"
     style="stroke-width:2.57299" />
  <path
     d="m 131.45231,127.52867 c 2.21273,0.0146 4.42547,0.0291 6.70526,0.0441 7.05327,0.0575 14.10316,0.18667 21.15541,0.3177 4.78746,0.0516 9.57497,0.0986 14.36252,0.14071 11.72383,0.11335 23.44513,0.29094 35.16757,0.50254 -1.16289,4.13215 -2.34611,8.25859 -3.53786,12.38252 -0.98507,3.44776 -0.98507,3.44776 -1.99005,6.96517 -2.19106,6.38222 -2.19106,6.38222 -7.33704,14.1012 -6.63332,0.78393 -12.63901,1.0811 -19.27734,1.02518 -2.86509,0.0111 -2.86509,0.0111 -5.78806,0.0224 -4.04458,0.005 -8.08923,-0.009 -12.13368,-0.0412 -6.17894,-0.0412 -12.35353,-4.7e-4 -18.53233,0.049 -3.92985,-0.005 -7.8597,-0.015 -11.78953,-0.0301 -1.84429,0.0156 -3.68858,0.0312 -5.58876,0.0473 -7.9962,-0.11219 -13.61145,-0.65674 -20.68515,-4.5237 -3.978842,-4.2678 -3.978842,-4.2678 -5.265338,-11.82596 3.280748,-20.0946 17.574178,-19.59746 34.534378,-19.17683 z"
     fill="#f87c1f"
     id="path3"
     style="stroke-width:2.57299" />
  <path
     d="m 161.76537,58.057894 c 2.15562,0.01456 4.31125,0.02913 6.5322,0.04413 6.86978,0.05751 13.73608,0.186652 20.60482,0.317697 4.6635,0.05163 9.32705,0.09859 13.99064,0.140711 11.41899,0.113339 22.83538,0.29092 34.25295,0.502537 -4.24543,11.038135 -8.49087,22.07627 -12.86496,33.448894 -11.95087,0.190814 -23.90086,0.330902 -35.8529,0.424015 -4.06569,0.03882 -8.13126,0.09149 -12.19659,0.1583 -5.84415,0.09364 -11.68688,0.137421 -17.53164,0.171491 -2.72616,0.05976 -2.72616,0.05976 -5.50738,0.120726 -12.56199,0.0043 -12.56199,0.0043 -18.73691,-4.308748 -4.35158,-6.653685 -5.21388,-11.814603 -5.37527,-19.72271 8.40609,-12.544123 18.85353,-11.649335 32.68504,-11.297042 z"
     fill="#f9a023"
     id="path4"
     style="stroke-width:2.57299" />
  <path
     d="m 120.98948,197.50199 c 1.70238,0.007 3.40477,0.0146 5.15874,0.0221 5.42698,0.0288 10.85286,0.0933 16.2795,0.15885 3.68359,0.0258 7.36719,0.0493 11.0508,0.0704 9.02091,0.0567 18.04117,0.14548 27.06164,0.25126 -2.14136,11.87109 -5.91944,22.23242 -10.29196,33.4489 -10.93463,0.29876 -21.8682,0.48172 -32.80565,0.64325 -3.10447,0.0862 -6.20895,0.17247 -9.4075,0.26131 -4.47761,0.0498 -4.47761,0.0498 -9.04567,0.10051 -2.74876,0.0539 -5.49751,0.1078 -8.32956,0.16333 -9.13769,-1.46065 -12.17567,-4.06764 -17.601376,-11.46037 0.160812,-9.32709 0.160812,-9.32709 2.572992,-18.01094 9.466794,-6.3112 14.083984,-5.74366 25.358044,-5.64852 z"
     fill="#f67a1f"
     id="path5"
     style="stroke-width:2.57299" />
  <path
     d="m 73.600194,57.937285 c 2.915421,-0.04975 5.830841,-0.0995 8.834608,-0.150762 8.05065,1.276445 8.05065,1.276445 14.262013,5.909841 4.080605,5.658572 4.080605,5.658572 3.919795,14.985667 -2.412182,8.683847 -2.412182,8.683847 -10.131158,13.829831 -7.799381,0.773907 -7.799381,0.773907 -16.724446,0.804059 -4.417907,0.06468 -4.417907,0.06468 -8.925065,0.13066 -7.799382,-0.934719 -7.799382,-0.934719 -12.643843,-4.281619 -4.846011,-7.370681 -3.786976,-13.866708 -2.874514,-22.383018 6.272187,-9.462917 13.542898,-8.832469 24.28261,-8.844659 z"
     fill="#f9a021"
     id="path6"
     style="stroke-width:2.57299" />
  <path
     d="m 45.618908,127.40806 c 4.383082,0.005 4.383082,0.005 8.85471,0.01 7.708925,1.11564 7.708925,1.11564 12.543335,4.48264 4.872188,7.35072 3.796276,13.85361 2.884565,22.36291 -2.874514,4.37208 -2.874514,4.37208 -7.718975,7.71898 -7.799382,0.93472 -7.799382,0.93472 -16.724447,0.80406 -2.945271,-0.01 -5.890543,-0.0199 -8.925065,-0.0301 -7.799381,-0.77391 -7.799381,-0.77391 -15.518357,-5.91989 -2.412179,-8.68385 -2.412179,-8.68385 -2.572991,-18.01095 7.800402,-10.81681 14.223295,-11.6387 27.177225,-11.41765 z"
     fill="#f77b20"
     id="path7"
     style="stroke-width:2.57299" />
</svg>
