<?xml version="1.0" encoding="UTF-8" standalone="no"?>
<svg
   version="1.1"
   width="512"
   height="512"
   id="svg7"
   sodipodi:docname="ryo_transparent.svg"
   inkscape:version="1.4 (e7c3feb1, 2024-10-09)"
   xmlns:inkscape="http://www.inkscape.org/namespaces/inkscape"
   xmlns:sodipodi="http://sodipodi.sourceforge.net/DTD/sodipodi-0.dtd"
   xmlns="http://www.w3.org/2000/svg"
   xmlns:svg="http://www.w3.org/2000/svg">
  <defs
     id="defs7" />
  <sodipodi:namedview
     id="namedview7"
     pagecolor="#ffffff"
     bordercolor="#000000"
     borderopacity="0.25"
     inkscape:showpageshadow="2"
     inkscape:pageopacity="0.0"
     inkscape:pagecheckerboard="0"
     inkscape:deskcolor="#d1d1d1"
     inkscape:zoom="1.9707031"
     inkscape:cx="255.74628"
     inkscape:cy="256"
     inkscape:window-width="1856"
     inkscape:window-height="1212"
     inkscape:window-x="366"
     inkscape:window-y="97"
     inkscape:window-maximized="0"
     inkscape:current-layer="svg7" />
  <path
     d="M0 0 C1.02290634 0.00142502 2.04581268 0.00285004 3.09971619 0.00431824 C4.25754105 0.00124161 5.41536591 -0.00183502 6.60827637 -0.00500488 C7.86349594 0.00218063 9.11871552 0.00936615 10.41197205 0.01676941 C12.3352256 0.01745674 12.3352256 0.01745674 14.29733276 0.01815796 C17.01178903 0.01972278 19.72611341 0.02801303 22.4405365 0.04142761 C25.92673569 0.05843446 29.4127901 0.06224148 32.89902592 0.06148243 C36.21586084 0.06181906 39.53264786 0.07065279 42.84947205 0.07926941 C44.73533775 0.08093864 44.73533775 0.08093864 46.65930176 0.0826416 C47.81397446 0.08902145 48.96864716 0.09540131 50.15830994 0.10197449 C51.69147606 0.10769218 51.69147606 0.10769218 53.25561523 0.11352539 C55.5643158 0.24723816 55.5643158 0.24723816 56.5643158 1.24723816 C56.18926032 6.99100013 55.02347723 11.04924384 52.3533783 16.21989441 C52.02909851 16.85723007 51.70481873 17.49456573 51.37071228 18.1512146 C50.32090399 20.20971576 49.25509882 22.25947027 48.1893158 24.30973816 C47.09339025 26.45096176 46.00195399 28.59443318 44.9108429 30.7381134 C44.18010029 32.17334305 43.44802465 33.60789477 42.71461487 35.04176331 C39.42845405 41.47520701 36.28344611 47.96903945 33.1893158 54.49723816 C32.74410583 55.43575623 32.29889587 56.37427429 31.8401947 57.3412323 C31.07442033 58.95667461 30.30985533 60.57269157 29.54722595 62.18962097 C28.57668943 64.22133528 27.57759814 66.2365503 26.5643158 68.24723816 C27.2442157 68.38822937 27.9241156 68.52922058 28.62461853 68.67448425 C31.75048656 69.32308394 34.87615204 69.9726548 38.0018158 70.62223816 C39.07109314 70.84395691 40.14037048 71.06567566 41.24205017 71.29411316 C43.35513622 71.73353166 45.46761725 72.17587065 47.57945251 72.6212616 C49.48006847 73.01985307 51.38259505 73.4095148 53.28746033 73.78727722 C59.34468396 75.02760632 59.34468396 75.02760632 61.5643158 77.24723816 C61.47230687 81.79887977 60.18335377 84.19432654 56.97138977 87.3809967 C56.47353973 87.84990326 55.9756897 88.31880981 55.4627533 88.80192566 C54.69072067 89.55978867 54.69072067 89.55978867 53.90309143 90.33296204 C52.25994854 91.94166399 50.6006549 93.5323545 48.9393158 95.12223816 C46.7758267 97.21905974 44.6189065 99.32256448 42.4627533 101.42692566 C41.67369598 102.19368622 41.67369598 102.19368622 40.86869812 102.97593689 C37.53876185 106.23010579 34.44924829 109.59700923 31.43785095 113.14225769 C26.55929827 118.62347756 21.18233116 123.67552281 15.96177673 128.82926941 C10.56630466 134.16188804 5.23573808 139.48733865 0.30357361 145.25895691 C-3.32464058 149.40665151 -7.19860796 153.31878248 -11.0606842 157.24723816 C-11.89341858 158.11735535 -12.72615295 158.98747253 -13.5841217 159.88395691 C-14.79841858 161.11565613 -14.79841858 161.11565613 -16.0372467 162.37223816 C-16.76250549 163.11731628 -17.48776428 163.86239441 -18.23500061 164.63005066 C-20.87026555 166.56659326 -22.2354844 166.67347608 -25.4356842 166.24723816 C-25.7656842 165.91723816 -26.0956842 165.58723816 -26.4356842 165.24723816 C-26.08705845 157.81570697 -24.02042318 151.67076418 -21.32240295 144.78239441 C-20.91157974 143.70904343 -20.50075653 142.63569244 -20.07748413 141.52981567 C-18.76930886 138.11920757 -17.44644722 134.71451683 -16.1231842 131.30973816 C-15.2452708 129.0269041 -14.36830854 126.74370401 -13.49232483 124.46012878 C-9.86823417 115.03086388 -6.20772556 105.61840969 -2.4356842 96.24723816 C-3.22587952 96.14926941 -4.01607483 96.05130066 -4.83021545 95.95036316 C-15.15790899 94.58120607 -25.26534855 92.48080868 -35.4356842 90.24723816 C-36.65730642 84.64851197 -36.04023013 80.92799867 -33.8497467 75.76286316 C-33.56128372 75.04525818 -33.27282074 74.3276532 -32.97561646 73.58830261 C-32.01903484 71.21818299 -31.04000913 68.85804043 -30.0606842 66.49723816 C-29.38559071 64.83743557 -28.71220109 63.17693906 -28.04042053 61.51579285 C-26.97586652 58.88523972 -25.9096204 56.25546153 -24.83706665 53.62815857 C-22.07367966 46.85677489 -19.38268492 40.05912075 -16.72084045 33.24723816 C-16.14266571 31.77030487 -16.14266571 31.77030487 -15.55281067 30.26353455 C-14.03233002 26.37941294 -12.51202171 22.49523825 -10.99775696 18.60868835 C-9.9442478 15.90811084 -8.88411196 13.21022547 -7.82240295 10.51286316 C-7.5084407 9.70317078 -7.19447845 8.89347839 -6.8710022 8.05924988 C-3.83923293 0.3897077 -3.83923293 0.3897077 0 0 Z "
     fill="#FAB123"
     transform="translate(253.43568420410156,168.7527618408203)"
     id="path2" />
  <path
     d="M0 0 C0.85998596 0.00565979 1.71997192 0.01131958 2.60601807 0.01715088 C5.34729149 0.03950549 8.08724804 0.08969898 10.828125 0.140625 C12.68878318 0.16069124 14.54946189 0.17894179 16.41015625 0.1953125 C20.96665166 0.23936716 25.52216522 0.30838746 30.078125 0.390625 C29.62616255 1.99659825 29.16630173 3.60035008 28.703125 5.203125 C28.32027344 6.54310547 28.32027344 6.54310547 27.9296875 7.91015625 C27.078125 10.390625 27.078125 10.390625 25.078125 13.390625 C22.50007147 13.69530057 20.16594095 13.81079772 17.5859375 13.7890625 C16.47241409 13.79336777 16.47241409 13.79336777 15.33639526 13.79776001 C13.76445759 13.79980296 12.19249462 13.7942569 10.62060547 13.78173828 C8.21914386 13.76573177 5.81937678 13.78155421 3.41796875 13.80078125 C1.89062129 13.79879797 0.36327489 13.79495253 -1.1640625 13.7890625 C-1.88085175 13.79513519 -2.59764099 13.80120789 -3.33615112 13.8074646 C-6.44389369 13.7638584 -8.62627682 13.55221867 -11.37548828 12.04931641 C-12.921875 10.390625 -12.921875 10.390625 -13.421875 7.453125 C-12.14680248 -0.3566942 -6.59162615 -0.16347884 0 0 Z "
     fill="#F87C1F"
     transform="translate(192.921875,203.609375)"
     id="path3" />
  <path
     d="M0 0 C0.83778992 0.00565979 1.67557983 0.01131958 2.53875732 0.01715088 C5.20871666 0.03950171 7.87732287 0.08969402 10.546875 0.140625 C12.35935559 0.16069175 14.17185726 0.17894222 15.984375 0.1953125 C20.42239459 0.23936206 24.85940556 0.30837934 29.296875 0.390625 C27.646875 4.680625 25.996875 8.970625 24.296875 13.390625 C19.65213518 13.46478567 15.00774001 13.51923115 10.36254883 13.55541992 C8.78240964 13.57050594 7.20231231 13.5909775 5.62231445 13.61694336 C3.35096915 13.65333626 1.08017741 13.67035262 -1.19140625 13.68359375 C-2.25093254 13.70681953 -2.25093254 13.70681953 -3.3318634 13.73051453 C-8.21411352 13.73218955 -8.21411352 13.73218955 -10.61401367 12.0559082 C-12.30526454 9.46993596 -12.64040037 7.46413189 -12.703125 4.390625 C-9.43607664 -0.48468119 -5.37564885 -0.13691922 0 0 Z "
     fill="#F9A023"
     transform="translate(204.703125,176.609375)"
     id="path4" />
  <path
     d="M0 0 C0.66163651 0.0028299 1.32327301 0.00565979 2.00495911 0.00857544 C4.11416862 0.01975332 6.2229505 0.04485269 8.33203125 0.0703125 C9.76366573 0.08034543 11.19530689 0.08947074 12.62695312 0.09765625 C16.13295102 0.11968455 19.63869938 0.15419765 23.14453125 0.1953125 C22.3122827 4.80903991 20.8439244 8.83599965 19.14453125 13.1953125 C14.89476079 13.31142645 10.64539788 13.38253599 6.39453125 13.4453125 C5.18796875 13.47882813 3.98140625 13.51234375 2.73828125 13.546875 C0.99804688 13.56621094 0.99804688 13.56621094 -0.77734375 13.5859375 C-1.8456543 13.60688477 -2.91396484 13.62783203 -4.01464844 13.64941406 C-7.56603521 13.08172934 -8.74675409 12.06851586 -10.85546875 9.1953125 C-10.79296875 5.5703125 -10.79296875 5.5703125 -9.85546875 2.1953125 C-6.1761743 -0.25755046 -4.38168968 -0.03697628 0 0 Z "
     fill="#F67A1F"
     transform="translate(188.85546875,230.8046875)"
     id="path5" />
  <path
     d="M0 0 C1.13308594 -0.01933594 2.26617187 -0.03867188 3.43359375 -0.05859375 C6.5625 0.4375 6.5625 0.4375 8.9765625 2.23828125 C10.5625 4.4375 10.5625 4.4375 10.5 8.0625 C9.5625 11.4375 9.5625 11.4375 6.5625 13.4375 C3.53125 13.73828125 3.53125 13.73828125 0.0625 13.75 C-1.65453125 13.77513672 -1.65453125 13.77513672 -3.40625 13.80078125 C-6.4375 13.4375 -6.4375 13.4375 -8.3203125 12.13671875 C-10.20372739 9.27208422 -9.79213068 6.7473863 -9.4375 3.4375 C-6.99979797 -0.24028739 -4.17401723 0.00473782 0 0 Z "
     fill="#F9A021"
     transform="translate(170.4375,176.5625)"
     id="path6" />
  <path
     d="M0 0 C1.70349609 0.00193359 1.70349609 0.00193359 3.44140625 0.00390625 C6.4375 0.4375 6.4375 0.4375 8.31640625 1.74609375 C10.209995 4.60297155 9.79183883 7.13033757 9.4375 10.4375 C8.3203125 12.13671875 8.3203125 12.13671875 6.4375 13.4375 C3.40625 13.80078125 3.40625 13.80078125 -0.0625 13.75 C-1.2071875 13.74613281 -2.351875 13.74226562 -3.53125 13.73828125 C-6.5625 13.4375 -6.5625 13.4375 -9.5625 11.4375 C-10.5 8.0625 -10.5 8.0625 -10.5625 4.4375 C-7.530853 0.2335166 -5.03457892 -0.08591432 0 0 Z "
     fill="#F77B20"
     transform="translate(159.5625,203.5625)"
     id="path7" />
</svg>
